<?xml version="1.0" encoding="iso-8859-1"?>
<!-- Uploaded to: SVG Repo, www.svgrepo.com, Generator: SVG Repo Mixer Tools -->
<svg height="800px" width="800px" version="1.1" id="Layer_1" xmlns="http://www.w3.org/2000/svg" xmlns:xlink="http://www.w3.org/1999/xlink" 
	 viewBox="0 0 512 512" xml:space="preserve">
<circle style="fill:#96C8EF;" cx="113.076" cy="364.92" r="76.885"/>
<path style="fill:#5AAAE7;" d="M189.957,364.94c0,24.414-11.392,46.153-29.135,60.238c-2.005-2.698-3.964-5.479-5.861-8.363
	c-22.921-34.858-35.758-80.394-36.3-128.535C158.511,291.145,189.957,324.359,189.957,364.94z"/>
<circle style="fill:#C2DFF6;" cx="115.043" cy="214.108" r="107.439"/>
<g>
	<path style="fill:#96C8EF;" d="M222.486,214.109c0,57.337-44.915,104.179-101.478,107.274c-1.569-11.853-2.372-23.998-2.372-36.301
		c0-49.314,12.901-96.092,36.327-131.717c6.692-10.177,14.078-19.198,22.083-27.011
		C204.536,145.813,222.486,177.864,222.486,214.109z"/>
	<circle style="fill:#96C8EF;" cx="398.924" cy="364.92" r="76.885"/>
</g>
<path style="fill:#5AAAE7;" d="M322.043,364.94c0,24.414,11.392,46.153,29.135,60.238c2.005-2.698,3.964-5.479,5.86-8.363
	c22.921-34.858,35.758-80.394,36.3-128.535C353.489,291.145,322.043,324.359,322.043,364.94z"/>
<circle style="fill:#C2DFF6;" cx="396.957" cy="214.108" r="107.439"/>
<path style="fill:#96C8EF;" d="M289.514,214.109c0,57.337,44.915,104.179,101.478,107.274c1.569-11.853,2.372-23.998,2.372-36.301
	c0-49.314-12.901-96.092-36.327-131.717c-6.693-10.177-14.078-19.198-22.083-27.011
	C307.464,145.813,289.514,177.864,289.514,214.109z"/>
<path style="fill:#5AAAE7;" d="M398.928,418.995c-4.2,0-7.604-3.405-7.604-7.604s3.404-7.604,7.604-7.604
	c21.431,0,38.866-17.435,38.866-38.865c0-4.199,3.404-7.604,7.604-7.604s7.604,3.405,7.604,7.604
	C453.002,394.738,428.745,418.995,398.928,418.995z"/>
<g>
	<path style="fill:#96C8EF;" d="M38.02,221.71c-4.2,0-7.604-3.405-7.604-7.604c0-46.665,37.964-84.629,84.629-84.629
		c4.2,0,7.604,3.405,7.604,7.604c0,4.199-3.404,7.604-7.604,7.604c-38.279,0-69.421,31.143-69.421,69.421
		C45.624,218.306,42.22,221.71,38.02,221.71z"/>
	<path style="fill:#96C8EF;" d="M89.727,294.463c-0.831,0-1.676-0.137-2.506-0.427c-9.783-3.415-18.779-8.556-26.737-15.281
		c-8.724-7.373-15.765-16.257-20.926-26.406c-1.903-3.743-0.412-8.321,3.332-10.225c3.742-1.903,8.321-0.413,10.225,3.331
		c4.237,8.331,10.019,15.627,17.185,21.684c6.532,5.519,13.911,9.738,21.933,12.538c3.964,1.384,6.058,5.72,4.673,9.685
		C95.812,292.499,92.871,294.463,89.727,294.463z"/>
</g>
<ellipse style="fill:#FFEB99;" cx="256" cy="285.078" rx="106.952" ry="162.644"/>
<path style="fill:#FFDA44;" d="M198.828,285.079c0-76.792,34.998-141.145,82.06-158.204c-7.987-2.896-16.319-4.438-24.889-4.438
	c-59.067,0-106.95,72.818-106.95,162.643S196.933,447.722,256,447.722c8.57,0,16.902-1.542,24.889-4.438
	C233.828,426.224,198.828,361.871,198.828,285.079z"/>
<g>
	<path style="fill:#787680;" d="M151.192,252.55h209.617c-3.208-24.035-9.902-46.144-19.244-65.056h-171.13
		C161.093,206.407,154.4,228.516,151.192,252.55z"/>
	<path style="fill:#787680;" d="M170.435,382.664h171.129c9.342-18.913,16.035-41.022,19.244-65.057H151.192
		C154.4,341.643,161.093,363.752,170.435,382.664z"/>
</g>
<g>
	<path style="fill:#57565C;" d="M200.974,317.608h-49.782c3.208,24.036,9.902,46.145,19.244,65.057h49.786
		C210.877,363.752,204.183,341.645,200.974,317.608z"/>
	<path style="fill:#57565C;" d="M170.435,187.494c-9.342,18.913-16.035,41.022-19.244,65.056h49.782
		c3.209-24.037,9.904-46.145,19.248-65.056H170.435z"/>
</g>
<path d="M59.227,129.893c1.348,0,2.714-0.359,3.95-1.111c7.65-4.661,15.883-8.264,24.473-10.709c4.039-1.15,6.381-5.356,5.231-9.395
	c-1.15-4.039-5.355-6.38-9.395-5.232c-9.906,2.821-19.402,6.975-28.221,12.349c-3.586,2.185-4.722,6.864-2.537,10.45
	C54.158,128.596,56.663,129.893,59.227,129.893z"/>
<path d="M266.644,187.493c0,4.199,3.404,7.604,7.604,7.604h39.036c4.2,0,7.604-3.405,7.604-7.604s-3.404-7.604-7.604-7.604h-39.036
	C270.047,179.889,266.644,183.294,266.644,187.493z"/>
<path d="M512,214.106c0-63.436-51.609-115.045-115.045-115.045c-32.323,0-63.052,13.57-84.837,37.342
	c-3.91-3.259-7.942-6.167-12.08-8.708l27.269-60.278c1.732-3.826,0.032-8.331-3.794-10.063c-3.825-1.732-8.331-0.031-10.062,3.794
	l-26.995,59.674c-9.784-3.945-20.001-5.99-30.457-5.99c-10.456,0-20.674,2.045-30.457,5.99l-26.995-59.674
	c-1.73-3.825-6.233-5.527-10.062-3.794c-3.826,1.732-5.526,6.236-3.794,10.063l27.269,60.278c-4.138,2.541-8.17,5.45-12.08,8.708
	c-21.784-23.772-52.514-37.342-84.837-37.342c-4.2,0-7.604,3.405-7.604,7.604s3.404,7.604,7.604,7.604
	c28.14,0,54.889,11.853,73.807,32.608c-5.248,5.646-10.21,11.993-14.83,19.019c-21.006,31.946-32.575,74.272-32.575,119.183
	c0,43.507,10.857,84.589,30.633,116.157c-12.577,20.382-35.008,32.968-59.007,32.968c-38.202,0-69.282-31.08-69.282-69.281
	c0-18.173,6.882-35.131,19.434-48.104c11.261,5.708,23.61,9.628,36.702,11.347c0.336,0.044,0.669,0.066,1,0.066
	c3.758,0,7.027-2.787,7.53-6.614c0.546-4.164-2.386-7.983-6.55-8.53c-49.424-6.494-86.696-49.047-86.696-98.982
	c0-25.542,9.639-49.844,27.14-68.431c2.879-3.058,2.734-7.87-0.322-10.749c-3.056-2.878-7.869-2.735-10.749,0.322
	C11.107,156.669,0,184.673,0,214.106c0,38.863,19.599,73.842,49.872,94.764c-13.768,15.452-21.289,35.086-21.289,56.052
	c0,46.588,37.902,84.489,84.49,84.489c27.103,0,52.565-13.16,68.36-34.84c20.675,26.377,46.789,40.754,74.569,40.754
	c27.78,0,53.893-14.378,74.568-40.754c15.795,21.68,41.257,34.84,68.36,34.84c4.2,0,7.604-3.405,7.604-7.604
	c0-4.199-3.404-7.604-7.604-7.604c-24,0-46.43-12.586-59.007-32.968c19.775-31.569,30.633-72.65,30.633-116.157
	c0-44.911-11.569-87.238-32.575-119.183c-4.62-7.026-9.583-13.372-14.83-19.019c18.918-20.756,45.668-32.608,73.807-32.608
	c55.051,0,99.837,44.786,99.837,99.837c0,49.936-37.273,92.489-86.698,98.981c-4.164,0.548-7.096,4.366-6.55,8.53
	c0.503,3.827,3.772,6.614,7.53,6.614c0.331,0,0.664-0.021,1-0.066c13.092-1.72,25.441-5.639,36.702-11.347
	c12.551,12.971,19.434,29.93,19.434,48.104c0,24.143-12.265,46.167-32.808,58.915c-3.569,2.214-4.666,6.902-2.452,10.47
	c1.441,2.321,3.925,3.595,6.468,3.595c1.369,0,2.755-0.369,4.003-1.144c25.044-15.542,39.996-42.397,39.996-71.837
	c0-20.967-7.522-40.599-21.289-56.052C492.401,287.947,512,252.969,512,214.106z M325.271,395.906
	c-18.747,28.51-43.349,44.21-69.271,44.21c-25.922,0-50.524-15.701-69.271-44.21c-1.211-1.841-2.388-3.722-3.53-5.639h145.604
	C327.66,392.186,326.483,394.065,325.271,395.906z M336.796,375.06H175.204c-6.993-15.147-12.109-31.989-15.176-49.849h191.936
	C348.895,343.07,343.788,359.914,336.796,375.06z M355.345,285.079c0,8.434-0.439,16.76-1.286,24.924h-196.12
	c-0.847-8.165-1.286-16.49-1.286-24.924c0-8.434,0.439-16.76,1.286-24.925h196.121C354.907,268.319,355.345,276.645,355.345,285.079
	z M160.036,244.946c3.069-17.858,8.176-34.703,15.168-49.849h161.577c6.993,15.15,12.121,31.986,15.19,49.849L160.036,244.946
	L160.036,244.946z M325.271,174.251c1.208,1.837,2.371,3.726,3.511,5.638H183.199c1.143-1.916,2.32-3.797,3.53-5.638
	c18.747-28.51,43.349-44.21,69.271-44.21S306.524,145.741,325.271,174.251z"/>
</svg>