<?xml version="1.0" encoding="iso-8859-1"?>
<!-- Uploaded to: SVG Repo, www.svgrepo.com, Generator: SVG Repo Mixer Tools -->
<svg height="800px" width="800px" version="1.1" id="Layer_1" xmlns="http://www.w3.org/2000/svg" xmlns:xlink="http://www.w3.org/1999/xlink" 
	 viewBox="0 0 511.999 511.999" xml:space="preserve">
<g>
	<circle style="fill:#787680;" cx="255.913" cy="141.805" r="86.678"/>
	<circle style="fill:#787680;" cx="255.913" cy="299.929" r="204.305"/>
</g>
<g>
	<path style="fill:#57565C;" d="M213.978,141.802c0-40.132,27.28-73.878,64.303-83.744c-7.138-1.902-14.633-2.93-22.371-2.93
		c-47.869,0-86.674,38.806-86.674,86.674s38.806,86.674,86.674,86.674c7.738,0,15.233-1.028,22.371-2.93
		C241.259,215.68,213.978,181.933,213.978,141.802z"/>
	<path style="fill:#57565C;" d="M460.215,299.93c0-112.834-91.471-204.305-204.304-204.305
		c-112.834,0-204.305,91.471-204.305,204.305c0,100.029,71.89,183.255,166.819,200.86c9.991-8.874,23.041-21.603,36.151-37.661
		c11.113,14.378,23.486,27.126,36.882,38.017C387.346,484.322,460.215,400.639,460.215,299.93z"/>
</g>
<path style="fill:#FF728B;" d="M255.911,85.272c-117.827,0-213.687,95.86-213.687,213.687c0,40.976,11.685,80.819,33.79,115.222
	c21.502,33.465,51.77,60.248,87.532,77.455c2.59,1.246,5.376,1.859,8.15,1.859c3.906,0,7.79-1.217,11.062-3.597
	c2.301-1.673,45.137-33.267,72.856-83.133c14.009,27.506,37.492,61.33,74.803,83.977c5.437,3.301,12.178,3.628,17.912,0.868
	c35.748-17.211,66.003-43.994,87.494-77.454c22.095-34.398,33.773-74.231,33.773-115.197
	C469.598,181.131,373.739,85.272,255.911,85.272z"/>
<g>
	<path style="fill:#FF3F62;" d="M131.929,414.18c-22.106-34.403-33.79-74.246-33.79-115.222c0-108.353,81.065-198.12,185.73-211.858
		c-9.152-1.201-18.483-1.83-27.957-1.83c-117.828,0-213.687,95.86-213.687,213.687c0,40.976,11.685,80.819,33.791,115.222
		c21.502,33.465,51.77,60.248,87.532,77.455c2.59,1.246,5.376,1.859,8.15,1.859c3.907,0,7.79-1.217,11.062-3.597
		c0.765-0.556,6.014-4.424,13.696-11.167C170.679,462.149,148.645,440.197,131.929,414.18z"/>
	<path style="fill:#FF3F62;" d="M227.319,136.81c-3.73,0-7.02-2.694-7.652-6.494c-0.703-4.231,2.157-8.231,6.388-8.934
		c9.805-1.629,19.836-2.456,29.815-2.458h0.38c4.29,0,7.766,3.477,7.766,7.766s-3.476,7.766-7.766,7.766h-0.378
		c-9.128,0.002-18.305,0.758-27.271,2.248C228.17,136.776,227.741,136.81,227.319,136.81z"/>
	<path style="fill:#FF3F62;" d="M401.178,213.339c-2.51,0-4.972-1.215-6.468-3.459l-0.272-0.408
		c-21.653-33.059-54.273-57.308-91.885-68.332c-4.117-1.206-6.475-5.521-5.268-9.637c1.207-4.116,5.522-6.474,9.637-5.268
		c41.152,12.062,76.835,38.582,100.475,74.675l0.237,0.355c2.379,3.568,1.414,8.39-2.154,10.769
		C404.155,212.916,402.659,213.339,401.178,213.339z"/>
</g>
<g>
	<circle style="fill:#57565C;" cx="168.065" cy="231.33" r="25.231"/>
	<circle style="fill:#57565C;" cx="193.289" cy="325.773" r="25.231"/>
	<circle style="fill:#57565C;" cx="103.246" cy="296.532" r="25.231"/>
	<circle style="fill:#57565C;" cx="135.428" cy="388.159" r="25.231"/>
	<circle style="fill:#57565C;" cx="344.63" cy="231.33" r="25.231"/>
	<circle style="fill:#57565C;" cx="319.396" cy="325.773" r="25.231"/>
	<circle style="fill:#57565C;" cx="409.449" cy="296.532" r="25.231"/>
	<circle style="fill:#57565C;" cx="377.257" cy="388.159" r="25.231"/>
</g>
<path d="M419.029,146.248c-23.316-24.318-52.079-42.853-83.652-54.516c-0.202-0.952-0.582-1.881-1.16-2.738
	c-6.561-9.713-14.743-17.964-24.05-24.499l32.544-52.644c2.255-3.648,1.126-8.434-2.523-10.689
	c-3.647-2.256-8.434-1.127-10.689,2.522l-32.743,52.966c-12.561-6.025-26.476-9.289-40.845-9.289
	c-14.469,0-28.372,3.227-40.888,9.22l-32.7-52.897c-2.257-3.648-7.041-4.777-10.689-2.522c-3.648,2.255-4.778,7.041-2.523,10.689
	l32.511,52.591c-10.317,7.261-19.241,16.653-26.145,27.848c-0.076,0.122-0.137,0.249-0.205,0.373
	c-17.825,6.997-34.791,16.357-50.55,27.98c-3.451,2.545-4.185,7.408-1.64,10.86c2.546,3.451,7.408,4.186,10.86,1.639
	c35.571-26.236,77.747-40.105,121.969-40.105c57.566,0,112.932,23.313,151.907,63.961c37.053,38.645,56.238,88.945,54.021,141.634
	c-2.414,57.376-22.676,106.039-60.227,144.637c-28.158,28.944-56.05,41.078-56.318,41.193c-0.112,0.048-0.223,0.097-0.331,0.15
	c-3.381,1.626-7.313,1.435-10.516-0.508c-36.765-22.317-59.398-56.292-71.911-80.863c-1.303-2.558-3.91-4.188-6.78-4.24
	c-0.047-0.001-0.094-0.001-0.142-0.001c-2.815,0-5.414,1.525-6.787,3.993c-26.979,48.534-68.868,79.339-70.636,80.626
	c-1.899,1.381-4.145,2.111-6.493,2.111c-1.668,0-3.278-0.367-4.783-1.091c-34.468-16.585-63.642-42.4-84.367-74.655
	C61.248,376.835,49.99,338.443,49.99,298.958c0-32.155,7.238-62.971,21.514-91.592c1.915-3.838,0.354-8.501-3.483-10.416
	c-3.84-1.916-8.503-0.355-10.417,3.483c-15.359,30.793-23.146,63.941-23.146,98.524c0,42.468,12.111,83.763,35.022,119.419
	c22.279,34.673,53.643,62.424,90.7,80.255c3.571,1.719,7.555,2.627,11.516,2.627c3.78,0,7.442-0.804,10.825-2.318
	c23.462,8.657,48.133,13.058,73.39,13.058c25.256,0,49.955-4.401,73.432-13.067c7.04,3.153,15.11,3.103,22.195-0.249
	c2.728-1.185,31.27-14,60.708-44.073c27.922-28.524,61.884-78.626,65.11-155.325C479.753,242.326,459.038,187.977,419.029,146.248z
	 M202.028,84.108c14.41-13.523,33.471-21.215,53.883-21.215c20.101,0,39.146,7.631,53.577,20.983
	c-17.4-4.181-35.385-6.371-53.577-6.371C237.526,77.506,219.473,79.744,202.028,84.108z M197.853,487.754
	c13.609-11.556,37.822-34.414,57.456-65.307c12.271,21.164,30.798,46.012,57.364,65.7c-18.327,5.523-37.365,8.321-56.761,8.321
	C236.047,496.468,216.575,493.539,197.853,487.754z"/>
<path d="M74.731,185.502c1.337,0.909,2.857,1.345,4.36,1.345c2.484,0,4.927-1.19,6.428-3.399
	c7.566-11.123,16.266-21.561,25.859-31.024c3.054-3.012,3.087-7.928,0.076-10.982c-3.013-3.055-7.931-3.087-10.982-0.075
	c-10.312,10.171-19.663,21.391-27.795,33.348C70.264,178.259,71.184,183.089,74.731,185.502z"/>
<path d="M168.062,198.328c-18.194,0-32.997,14.802-32.997,32.997s14.803,32.997,32.997,32.997s32.997-14.802,32.997-32.997
	S186.256,198.328,168.062,198.328z M168.062,248.79c-9.631,0-17.465-7.834-17.465-17.465c0-9.631,7.834-17.465,17.465-17.465
	c9.631,0,17.465,7.834,17.465,17.465C185.527,240.956,177.692,248.79,168.062,248.79z"/>
<path d="M193.293,358.771c18.194,0,32.997-14.802,32.997-32.997s-14.803-32.997-32.997-32.997s-32.997,14.802-32.997,32.997
	S175.099,358.771,193.293,358.771z M193.293,308.31c9.631,0,17.465,7.834,17.465,17.465s-7.834,17.465-17.465,17.465
	c-9.631,0-17.465-7.834-17.465-17.465S183.662,308.31,193.293,308.31z"/>
<path d="M103.243,263.536c-18.194,0-32.997,14.802-32.997,32.997c0,18.195,14.803,32.997,32.997,32.997s32.997-14.802,32.997-32.997
	C136.24,278.337,121.437,263.536,103.243,263.536z M103.243,313.997c-9.631,0-17.465-7.834-17.465-17.465
	c0-9.631,7.834-17.465,17.465-17.465s17.465,7.834,17.465,17.465C120.708,306.163,112.874,313.997,103.243,313.997z"/>
<path d="M135.429,355.161c-18.194,0-32.997,14.802-32.997,32.997s14.803,32.997,32.997,32.997c18.194,0,32.997-14.802,32.997-32.997
	S153.623,355.161,135.429,355.161z M135.429,405.623c-9.631,0-17.465-7.834-17.465-17.465c0-9.631,7.834-17.465,17.465-17.465
	s17.465,7.834,17.465,17.465C152.894,397.789,145.059,405.623,135.429,405.623z"/>
<path d="M286.4,325.774c0,18.195,14.803,32.997,32.997,32.997s32.997-14.802,32.997-32.997s-14.803-32.997-32.997-32.997
	S286.4,307.58,286.4,325.774z M319.397,308.31c9.631,0,17.465,7.834,17.465,17.465s-7.834,17.465-17.465,17.465
	s-17.465-7.834-17.465-17.465S309.766,308.31,319.397,308.31z"/>
<path d="M344.628,198.328c-18.194,0-32.997,14.802-32.997,32.997s14.803,32.997,32.997,32.997c18.194,0,32.997-14.802,32.997-32.997
	S362.822,198.328,344.628,198.328z M344.628,248.79c-9.631,0-17.465-7.834-17.465-17.465c0-9.631,7.834-17.465,17.465-17.465
	c9.631,0,17.465,7.834,17.465,17.465C362.093,240.956,354.259,248.79,344.628,248.79z"/>
<path d="M442.443,296.532c0-18.195-14.803-32.997-32.997-32.997s-32.997,14.802-32.997,32.997c0,18.195,14.803,32.997,32.997,32.997
	S442.443,314.727,442.443,296.532z M409.446,313.997c-9.631,0-17.465-7.834-17.465-17.465c0-9.631,7.834-17.465,17.465-17.465
	s17.465,7.834,17.465,17.465C426.911,306.163,419.077,313.997,409.446,313.997z"/>
<path d="M377.26,355.161c-18.194,0-32.997,14.802-32.997,32.997s14.803,32.997,32.997,32.997s32.997-14.802,32.997-32.997
	S395.454,355.161,377.26,355.161z M377.26,405.623c-9.631,0-17.465-7.834-17.465-17.465c0-9.631,7.834-17.465,17.465-17.465
	s17.465,7.834,17.465,17.465C394.725,397.789,386.891,405.623,377.26,405.623z"/>
</svg>