<?xml version="1.0" encoding="iso-8859-1"?>
<!-- Uploaded to: SVG Repo, www.svgrepo.com, Generator: SVG Repo Mixer Tools -->
<svg height="800px" width="800px" version="1.1" id="Layer_1" xmlns="http://www.w3.org/2000/svg" xmlns:xlink="http://www.w3.org/1999/xlink" 
	 viewBox="0 0 512 512" xml:space="preserve">
<g>
	<g>
		<path style="fill:#24AE5F;" d="M256,308.966h-17.187c-29.511,0-53.433-23.923-53.433-53.433v-17.187h17.187
			c29.511,0,53.433,23.923,53.433,53.433V308.966z"/>
		<path style="fill:#24AE5F;" d="M256,247.172h17.187c29.511,0,53.433-23.923,53.433-53.433v-17.187h-17.187
			c-29.511,0-53.433,23.923-53.433,53.433V247.172z"/>
	</g>
	<path style="fill:#71C285;" d="M256,361.931c-4.873,0-8.828-3.946-8.828-8.828V150.069c0-4.882,3.955-8.828,8.828-8.828
		c4.873,0,8.828,3.946,8.828,8.828v203.034C264.828,357.985,260.873,361.931,256,361.931"/>
	<path style="fill:#CB8252;" d="M344.276,406.069H167.724c-9.746,0-17.655-7.91-17.655-17.655v-17.655
		c0-9.746,7.91-17.655,17.655-17.655h176.552c9.746,0,17.655,7.91,17.655,17.655v17.655
		C361.931,398.159,354.022,406.069,344.276,406.069"/>
	<path style="fill:#805333;" d="M315.987,512H196.011c-8.942,0-16.472-6.691-17.532-15.572l-10.752-90.359h176.552l-10.761,90.359
		C332.459,505.309,324.929,512,315.987,512"/>
	<path style="fill:#C03A2B;" d="M300.168,0c-21.354,0-37.508,15.183-44.253,31.779C249.162,15.183,233.016,0,211.654,0
		c-44.262,0-58.703,55.331-26.73,88.099c11.9,12.209,67.716,68.017,71.08,70.797c3.893-3.831,59.374-58.43,70.894-70.797
		C358.969,53.716,344.429,0,300.168,0"/>
	<g>
		<path style="fill:#CB8252;" d="M203.034,432.552h-31.108c-0.362,0-0.671,0.168-1.024,0.203l2.074,17.452h30.058
			c4.873,0,8.828-3.946,8.828-8.828C211.862,436.498,207.907,432.552,203.034,432.552"/>
		<path style="fill:#CB8252;" d="M220.69,467.862h-44.562c-0.362,0-0.671,0.168-1.024,0.203l2.074,17.452h43.511
			c4.873,0,8.828-3.946,8.828-8.828C229.517,471.808,225.562,467.862,220.69,467.862"/>
	</g>
</g>
</svg>