<?xml version="1.0" encoding="iso-8859-1"?>
<!-- Uploaded to: SVG Repo, www.svgrepo.com, Generator: SVG Repo Mixer Tools -->
<svg version="1.1" id="Layer_1" xmlns="http://www.w3.org/2000/svg" xmlns:xlink="http://www.w3.org/1999/xlink" 
	 viewBox="0 0 512 512" xml:space="preserve">
<rect x="239.873" y="162.573" style="fill:#6FD6A4;" width="32.254" height="150.521"/>
<rect x="256" y="162.573" style="fill:#3ACC8F;" width="16.127" height="150.521"/>
<polygon style="fill:#FFB64C;" points="255.997,0 185.678,70.319 255.997,129.967 326.315,70.319 "/>
<polygon style="fill:#FF9800;" points="255.997,0 255.997,129.967 326.315,70.319 "/>
<path style="fill:#FF3D63;" d="M255.997,89.801L153.858,25.964v50.601c0,56.32,45.82,102.139,102.139,102.139
	s102.139-45.82,102.139-102.139V25.964L255.997,89.801z"/>
<polygon style="fill:#9F7953;" points="148.309,372.231 190.24,512 321.753,512 363.684,372.231 "/>
<polygon style="fill:#896746;" points="255.997,372.231 255.997,512 321.753,512 363.684,372.231 "/>
<path style="fill:#FF0536;" d="M255.997,89.801v88.903c56.32,0,102.139-45.82,102.139-102.139V25.964L255.997,89.801z"/>
<path style="fill:#81E26F;" d="M247.962,245.873c-25.339-25.34-66.332-23.386-68.064-23.29l-14.419,0.796l-0.796,14.419
	c-0.096,1.732-2.05,42.725,23.29,68.064c21.554,21.553,54.43,23.361,64.841,23.361c1.829,0,2.965-0.056,3.224-0.07l14.419-0.796
	l0.796-14.419C271.348,312.204,273.301,271.212,247.962,245.873z"/>
<path style="fill:#60DC4D;" d="M179.897,222.582l-14.352,0.791L270.46,328.288l0.791-14.352c0.096-1.732,2.05-42.725-23.29-68.064
	C222.623,220.532,181.63,222.486,179.897,222.582z"/>
<path style="fill:#3ACC8F;" d="M373.84,209.671l-0.796-14.419l-14.419-0.796c-2.261-0.126-55.826-2.684-88.666,30.157
	c-32.838,32.838-30.283,86.402-30.157,88.666l0.796,14.419l14.419,0.796c0.341,0.019,1.842,0.092,4.263,0.092
	c13.659,0,56.509-2.356,84.402-30.25C376.521,265.498,373.964,211.936,373.84,209.671z"/>
<path style="fill:#00C37A;" d="M373.84,208.805l-0.796-14.419l-0.391-0.021L240.575,326.441l0.022,0.391l14.419,0.796
	c0.341,0.019,1.842,0.092,4.263,0.092c13.659,0,56.509-2.356,84.402-30.25C376.521,264.632,373.964,211.069,373.84,208.805z"/>
<rect x="121.606" y="296.967" style="fill:#C8AC90;" width="268.787" height="107.515"/>
<rect x="256" y="296.967" style="fill:#BC9A7B;" width="134.394" height="107.515"/>
</svg>