<?xml version="1.0" encoding="iso-8859-1"?>
<!-- Uploaded to: SVG Repo, www.svgrepo.com, Generator: SVG Repo Mixer Tools -->
<svg version="1.1" id="Layer_1" xmlns="http://www.w3.org/2000/svg" xmlns:xlink="http://www.w3.org/1999/xlink" 
	 viewBox="0 0 512.002 512.002" xml:space="preserve">
<g>
	<path style="fill:#9CAC74;" d="M37.444,421.934c-3.242,3.242-3.242,8.5,0,11.742s8.5,3.242,11.742,0l136.29-136.29l-11.742-11.742
		L37.444,421.934z"/>
	<path style="fill:#9CAC74;" d="M78.327,462.817c-3.242,3.242-3.242,8.499,0,11.742c3.242,3.242,8.5,3.242,11.742,0l136.29-136.29
		l-11.742-11.742L78.327,462.817z"/>
	<path style="fill:#9CAC74;" d="M2.433,386.923c-3.242,3.242-3.242,8.5,0,11.742c3.242,3.242,8.5,3.242,11.742,0l136.29-136.29
		l-19.57-3.914L2.433,386.923z"/>
	<path style="fill:#9CAC74;" d="M249.628,361.538l-136.29,136.29c-3.242,3.242-3.242,8.499,0,11.742c3.242,3.242,8.5,3.242,11.742,0
		l128.462-128.462L249.628,361.538z"/>
	<path style="fill:#9CAC74;" d="M272.055,336.996l-23.483-23.483l-18.513,44.109l23.483,23.483l18.513-18.513
		C279.123,355.526,279.123,344.066,272.055,336.996z"/>
</g>
<path style="fill:#BCC987;" d="M248.572,339.111l-18.513,18.513l-99.163-99.163l18.513-18.513c7.068-7.068,18.528-7.068,25.597,0
	l73.566,73.566C255.64,320.582,255.64,332.041,248.572,339.111z"/>
<path style="fill:#FCDB5A;" d="M432.87,100.706l-144.04,144.04l-26.443,4.868l4.87-26.441l144.04-144.04
	c1.863,4.744,4.705,9.182,8.548,13.025S428.126,98.843,432.87,100.706z"/>
<rect x="239.897" y="234.506" transform="matrix(-0.7071 0.7071 -0.7071 -0.7071 624.2732 240.9393)" style="fill:#FEC45E;" width="44.679" height="30.509"/>
<path style="fill:#5D734F;" d="M413.97,98.032c-18.131-18.131-18.131-47.632,0-65.763l10.692-10.692l19.57,3.914l-18.521,18.52
	c-11.657,11.657-11.657,30.622,0,42.279c11.657,11.657,30.622,11.657,42.279,0l18.52-18.52l3.914,19.57l-10.693,10.692
	C461.601,116.163,432.1,116.163,413.97,98.032z"/>
<polygon style="fill:#FEC45E;" points="512.001,65.771 490.427,87.344 466.944,63.861 462.075,37.419 488.518,42.287 "/>
<rect x="441.336" y="2.029" transform="matrix(-0.7071 0.7071 -0.7071 -0.7071 802.0259 -268.3512)" style="fill:#FCDB5A;" width="30.509" height="59.801"/>
<path style="fill:#9CAC74;" d="M240.86,243.742l-31.031,31.031c-7.565,7.565-7.565,19.832,0,27.398
	c7.565,7.565,19.832,7.565,27.398,0l31.031-31.031L240.86,243.742z"/>
</svg>