<?xml version="1.0" encoding="iso-8859-1"?>
<!-- Uploaded to: SVG Repo, www.svgrepo.com, Generator: SVG Repo Mixer Tools -->
<svg version="1.1" id="Layer_1" xmlns="http://www.w3.org/2000/svg" xmlns:xlink="http://www.w3.org/1999/xlink" 
	 viewBox="0 0 511.994 511.994" xml:space="preserve">
<path style="fill:#BCC987;" d="M125.477,254.463L0.11,423.732c-0.229,38.73,15.315,72.931,15.315,72.931
	s33.947,15.425,72.508,15.331l169.481-125.595L125.477,254.463z"/>
<path style="fill:#7D9062;" d="M257.767,386.755l-98.057,98.057c-20.724,20.724-47.195,27.116-71.78,27.183l65.507-65.507
	c29.393-29.393,65.118-49.337,103.974-60.088L257.767,386.755z"/>
<path style="fill:#9CAC74;" d="M65.397,358.446L0.109,423.732c0.127-24.457,6.561-50.751,27.166-71.356l97.845-98.268l0.356,0.356
	C114.734,293.328,94.788,329.053,65.397,358.446z"/>
<path style="fill:#FCDB5A;" d="M426.309,108.903L270.533,264.679l-28.598,5.264l5.267-28.595L402.977,85.572
	c2.015,5.13,5.088,9.93,9.245,14.086S421.177,106.888,426.309,108.903z"/>
<rect x="217.62" y="253.603" transform="matrix(-0.7071 0.7071 -0.7071 -0.7071 603.7334 290.1268)" style="fill:#FEC45E;" width="48.319" height="32.995"/>
<path style="fill:#5D734F;" d="M405.869,106.012c-19.608-19.608-19.608-51.512,0-71.12l11.564-11.563l21.164,4.233l-20.029,20.029
	c-12.607,12.607-12.607,33.117,0,45.724c12.607,12.607,33.117,12.607,45.724,0l20.029-20.029l4.233,21.164l-11.563,11.563
	C457.381,125.62,425.477,125.62,405.869,106.012z"/>
<polygon style="fill:#FEC45E;" points="511.887,71.122 488.555,94.453 463.159,69.056 457.893,40.46 486.49,45.725 "/>
<rect x="435.462" y="2.194" transform="matrix(-0.7071 0.7071 -0.7071 -0.7071 795.9594 -260.6357)" style="fill:#FCDB5A;" width="32.995" height="64.673"/>
<path style="fill:#9CAC74;" d="M218.656,263.593l-58.701,58.701c-8.182,8.182-8.182,21.448,0,29.63
	c8.182,8.182,21.448,8.182,29.63,0l58.701-58.701L218.656,263.593z"/>
</svg>