<?xml version="1.0" encoding="iso-8859-1"?>
<!-- Uploaded to: SVG Repo, www.svgrepo.com, Generator: SVG Repo Mixer Tools -->
<svg height="800px" width="800px" version="1.1" id="Layer_1" xmlns="http://www.w3.org/2000/svg" xmlns:xlink="http://www.w3.org/1999/xlink" 
	 viewBox="0 0 512.001 512.001" xml:space="preserve">
<circle style="fill:#FFEB99;" cx="262.353" cy="256.091" r="148.94"/>
<g>
	<path style="fill:#FFDA44;" d="M166.906,256.091c0-73.127,52.701-133.942,122.194-146.544c-8.678-1.574-17.617-2.4-26.748-2.4
		c-82.26,0-148.944,66.684-148.944,148.944s66.684,148.944,148.944,148.944c9.131,0,18.071-0.826,26.748-2.4
		C219.607,390.033,166.906,329.218,166.906,256.091z"/>
	<path style="fill:#FFDA44;" d="M367.457,300.387c-0.807,0-1.629-0.125-2.438-0.39c-4.115-1.345-6.36-5.772-5.016-9.887
		c3.58-10.952,5.395-22.398,5.395-34.019c0-4.329,3.51-7.84,7.84-7.84s7.84,3.51,7.84,7.84c0,13.279-2.076,26.364-6.17,38.89
		C373.825,298.287,370.755,300.387,367.457,300.387z"/>
	<path style="fill:#FFDA44;" d="M281.709,378.606c-3.579,0-6.811-2.467-7.638-6.104c-0.96-4.222,1.686-8.423,5.908-9.381
		c24.888-5.654,47.207-20.014,62.848-40.436c2.634-3.437,7.555-4.09,10.991-1.458c3.438,2.632,4.09,7.553,1.458,10.991
		c-17.863,23.324-43.369,39.729-71.822,46.193C282.869,378.542,282.285,378.606,281.709,378.606z"/>
</g>
<path d="M173.715,78.784l7.439,17.958c1.251,3.02,4.17,4.842,7.246,4.842c1,0,2.016-0.192,2.997-0.599
	c4-1.658,5.899-6.243,4.243-10.243L188.2,72.784c-1.658-4-6.242-5.898-10.243-4.243C173.957,70.198,172.058,74.784,173.715,78.784z"
	/>
<path d="M163.855,55.217c1.25,3.019,4.17,4.842,7.246,4.842c1,0,2.016-0.192,2.997-0.599c4-1.658,5.899-6.243,4.243-10.243
	l-10.613-25.622c-1.656-4-6.243-5.899-10.243-4.243c-4,1.657-5.899,6.243-4.243,10.243L163.855,55.217z"/>
<path d="M22.898,168.424l76.934,31.867c0.982,0.407,1.998,0.599,2.997,0.599c3.076,0,5.996-1.823,7.246-4.842
	c1.657-4-0.243-8.586-4.243-10.243l-76.935-31.867c-4.002-1.656-8.586,0.243-10.243,4.243
	C16.999,162.182,18.899,166.767,22.898,168.424z"/>
<path d="M110.076,316.649c-1.657-3.999-6.242-5.898-10.243-4.243l-46.597,19.3c-4,1.658-5.9,6.243-4.243,10.243
	c1.25,3.019,4.17,4.842,7.246,4.842c1,0,2.016-0.192,2.997-0.599l46.597-19.301C109.833,325.233,111.732,320.648,110.076,316.649z"
	/>
<path d="M29.553,341.517l-6.655,2.756c-4,1.657-5.899,6.243-4.243,10.243c1.25,3.019,4.17,4.842,7.246,4.842
	c0.999,0,2.016-0.192,2.997-0.599l6.655-2.756c4-1.657,5.9-6.243,4.243-10.243C38.139,341.759,33.554,339.86,29.553,341.517z"/>
<path d="M192.58,409.242c-4-1.658-8.586,0.242-10.243,4.243l-2.502,6.041c-1.657,4,0.243,8.586,4.243,10.243
	c0.98,0.407,1.998,0.599,2.997,0.599c3.076,0,5.995-1.823,7.246-4.842l2.502-6.041C198.479,415.485,196.58,410.899,192.58,409.242z"
	/>
<path d="M181.189,436.121c-3.998-1.656-8.586,0.242-10.243,4.243l-17.703,42.738c-1.657,4,0.242,8.586,4.243,10.243
	c0.982,0.407,1.998,0.599,2.997,0.599c3.076,0,5.996-1.823,7.246-4.842l17.703-42.738
	C187.088,442.364,185.188,437.778,181.189,436.121z"/>
<path d="M488.406,344.273l-23.536-9.749c-4.002-1.656-8.587,0.242-10.243,4.243c-1.657,4,0.242,8.586,4.243,10.243l23.536,9.749
	c0.982,0.407,1.998,0.599,2.997,0.599c3.076,0,5.996-1.823,7.246-4.842C494.305,350.515,492.406,345.93,488.406,344.273z"/>
<path d="M478.653,171.821c0.999,0,2.016-0.192,2.997-0.599l6.756-2.798c4-1.657,5.9-6.242,4.243-10.243
	c-1.657-4-6.242-5.902-10.243-4.243l-6.756,2.798c-4,1.657-5.9,6.242-4.243,10.243C472.658,169.998,475.577,171.821,478.653,171.821
	z"/>
<path d="M504.161,247.812h-85.246c-0.847-16.193-4.165-31.742-9.58-46.279l44.827-18.925c4-1.657,5.9-6.243,4.243-10.243
	c-1.657-4-6.242-5.899-10.243-4.243l-45.181,18.715c-7.204-14.57-16.603-27.868-27.769-39.455l61.56-61.56
	c3.062-3.062,3.062-8.026,0-11.087c-3.062-3.062-8.026-3.062-11.087,0l-61.907,61.907c-11.848-10.076-25.207-18.426-39.686-24.654
	l33.968-82.392c1.657-4-0.242-8.586-4.243-10.243c-4-1.657-8.586,0.241-10.243,4.243l-34.184,82.926
	c-14.51-4.574-29.925-7.084-45.901-7.199V7.84c0-4.33-3.51-7.84-7.84-7.84s-7.84,3.51-7.84,7.84v92.149
	c-36.361,3.359-69.161,19.182-94.078,43.151L85.821,75.227c-3.062-3.062-8.026-3.062-11.087,0c-3.062,3.062-3.062,8.026,0,11.087
	l68.25,68.25c-21.787,25.577-35.52,58.209-37.23,93.946H7.84c-4.33,0-7.84,3.51-7.84,7.84c0,4.329,3.51,7.84,7.84,7.84h97.935
	c1.827,35.737,15.681,68.347,37.577,93.865l-68.125,68.125c-3.062,3.062-3.062,8.026,0,11.087c3.062,3.062,8.026,3.062,11.087,0
	l67.826-67.826c25.026,23.902,57.93,39.613,94.369,42.816v91.905c0,4.329,3.51,7.839,7.84,7.839c4.33,0,7.84-3.51,7.84-7.839V412.85
	c15.604-0.181,30.669-2.64,44.87-7.082l34.518,83.333c1.25,3.019,4.17,4.842,7.246,4.842c1,0,2.016-0.192,2.997-0.599
	c4-1.657,5.9-6.243,4.243-10.243l-34.126-82.839c14.798-6.345,28.429-14.903,40.476-25.258l61.767,61.767
	c3.062,3.062,8.026,3.062,11.087,0s3.062-8.026,0-11.087l-61.476-61.476c10.718-11.24,19.778-24.07,26.806-38.089l25.632,10.809
	c0.98,0.407,1.998,0.599,2.997,0.599c3.076,0,5.996-1.823,7.246-4.842c1.657-4-0.242-8.586-4.243-10.243l-25.427-10.391
	c5.828-15.2,9.358-31.53,10.154-48.562h85.206c4.329,0,7.84-3.51,7.84-7.84C512,251.321,508.49,247.812,504.161,247.812z
	 M121.248,256.091c0-77.805,63.299-141.104,141.104-141.104s141.104,63.299,141.104,141.104s-63.299,141.104-141.104,141.104
	C184.546,397.195,121.248,333.896,121.248,256.091z"/>
</svg>